<mxfile host="app.diagrams.net" agent="Mozilla/5.0 (Macintosh; Intel Mac OS X 10_15_7) AppleWebKit/537.36 (KHTML, like Gecko) Chrome/131.0.0.0 Safari/537.36 Edg/131.0.0.0" version="25.0.1">
  <diagram name="Page-1" id="804wLcTWMEcpsjMx-iTg">
    <mxGraphModel dx="858" dy="536" grid="0" gridSize="10" guides="1" tooltips="1" connect="1" arrows="1" fold="1" page="1" pageScale="1" pageWidth="850" pageHeight="1100" math="0" shadow="0">
      <root>
        <mxCell id="0" />
        <mxCell id="1" parent="0" />
        <mxCell id="Gz_pXDHY9g16WIGXIUQy-4" style="rounded=0;orthogonalLoop=1;jettySize=auto;html=1;exitX=1;exitY=0.5;exitDx=0;exitDy=0;entryX=0;entryY=0.5;entryDx=0;entryDy=0;endArrow=none;endFill=0;startArrow=ERzeroToOne;startFill=0;" edge="1" parent="1" source="Gz_pXDHY9g16WIGXIUQy-1" target="Gz_pXDHY9g16WIGXIUQy-3">
          <mxGeometry relative="1" as="geometry" />
        </mxCell>
        <mxCell id="Gz_pXDHY9g16WIGXIUQy-27" style="edgeStyle=orthogonalEdgeStyle;shape=connector;rounded=0;orthogonalLoop=1;jettySize=auto;html=1;exitX=0.5;exitY=1;exitDx=0;exitDy=0;entryX=0;entryY=0.5;entryDx=0;entryDy=0;strokeColor=default;align=center;verticalAlign=middle;fontFamily=Helvetica;fontSize=11;fontColor=default;labelBackgroundColor=default;endArrow=none;endFill=0;startArrow=ERzeroToOne;startFill=0;" edge="1" parent="1" source="Gz_pXDHY9g16WIGXIUQy-1" target="Gz_pXDHY9g16WIGXIUQy-26">
          <mxGeometry relative="1" as="geometry" />
        </mxCell>
        <mxCell id="Gz_pXDHY9g16WIGXIUQy-1" value="Passenger" style="whiteSpace=wrap;html=1;align=center;" vertex="1" parent="1">
          <mxGeometry x="171" y="360" width="100" height="40" as="geometry" />
        </mxCell>
        <mxCell id="Gz_pXDHY9g16WIGXIUQy-2" value="Location" style="whiteSpace=wrap;html=1;align=center;" vertex="1" parent="1">
          <mxGeometry x="439" y="358" width="100" height="41" as="geometry" />
        </mxCell>
        <mxCell id="Gz_pXDHY9g16WIGXIUQy-5" style="edgeStyle=none;shape=connector;rounded=0;orthogonalLoop=1;jettySize=auto;html=1;exitX=1;exitY=0.5;exitDx=0;exitDy=0;strokeColor=default;align=center;verticalAlign=middle;fontFamily=Helvetica;fontSize=11;fontColor=default;labelBackgroundColor=default;endArrow=ERoneToMany;endFill=0;" edge="1" parent="1" source="Gz_pXDHY9g16WIGXIUQy-3" target="Gz_pXDHY9g16WIGXIUQy-2">
          <mxGeometry relative="1" as="geometry">
            <mxPoint x="450" y="380" as="targetPoint" />
          </mxGeometry>
        </mxCell>
        <mxCell id="Gz_pXDHY9g16WIGXIUQy-11" style="edgeStyle=none;shape=connector;rounded=0;orthogonalLoop=1;jettySize=auto;html=1;entryX=0.5;entryY=1;entryDx=0;entryDy=0;strokeColor=default;align=center;verticalAlign=middle;fontFamily=Helvetica;fontSize=11;fontColor=default;labelBackgroundColor=default;endArrow=none;endFill=0;exitX=0;exitY=1;exitDx=0;exitDy=0;" edge="1" parent="1" source="Gz_pXDHY9g16WIGXIUQy-26" target="Gz_pXDHY9g16WIGXIUQy-10">
          <mxGeometry relative="1" as="geometry">
            <mxPoint x="330" y="427" as="sourcePoint" />
          </mxGeometry>
        </mxCell>
        <mxCell id="Gz_pXDHY9g16WIGXIUQy-13" style="edgeStyle=none;shape=connector;rounded=0;orthogonalLoop=1;jettySize=auto;html=1;exitX=1;exitY=0;exitDx=0;exitDy=0;entryX=0.5;entryY=1;entryDx=0;entryDy=0;strokeColor=default;align=center;verticalAlign=middle;fontFamily=Helvetica;fontSize=11;fontColor=default;labelBackgroundColor=default;endArrow=none;endFill=0;" edge="1" parent="1" source="Gz_pXDHY9g16WIGXIUQy-3" target="Gz_pXDHY9g16WIGXIUQy-12">
          <mxGeometry relative="1" as="geometry" />
        </mxCell>
        <mxCell id="Gz_pXDHY9g16WIGXIUQy-3" value="travels to" style="shape=rhombus;perimeter=rhombusPerimeter;whiteSpace=wrap;html=1;align=center;" vertex="1" parent="1">
          <mxGeometry x="310" y="360" width="90" height="40" as="geometry" />
        </mxCell>
        <mxCell id="Gz_pXDHY9g16WIGXIUQy-7" style="edgeStyle=none;shape=connector;rounded=0;orthogonalLoop=1;jettySize=auto;html=1;exitX=0.75;exitY=1;exitDx=0;exitDy=0;strokeColor=default;align=center;verticalAlign=middle;fontFamily=Helvetica;fontSize=11;fontColor=default;labelBackgroundColor=default;endArrow=none;endFill=0;" edge="1" parent="1">
          <mxGeometry relative="1" as="geometry">
            <mxPoint x="770" y="400" as="sourcePoint" />
            <mxPoint x="770" y="400" as="targetPoint" />
          </mxGeometry>
        </mxCell>
        <mxCell id="Gz_pXDHY9g16WIGXIUQy-10" value="booking_id" style="ellipse;whiteSpace=wrap;html=1;align=center;fontFamily=Helvetica;fontSize=11;fontColor=default;labelBackgroundColor=default;" vertex="1" parent="1">
          <mxGeometry x="218" y="477" width="80" height="20" as="geometry" />
        </mxCell>
        <mxCell id="Gz_pXDHY9g16WIGXIUQy-12" value="pickup_venue" style="ellipse;whiteSpace=wrap;html=1;align=center;fontFamily=Helvetica;fontSize=11;fontColor=default;labelBackgroundColor=default;" vertex="1" parent="1">
          <mxGeometry x="327" y="323" width="90" height="20" as="geometry" />
        </mxCell>
        <mxCell id="Gz_pXDHY9g16WIGXIUQy-21" value="Car" style="whiteSpace=wrap;html=1;align=center;" vertex="1" parent="1">
          <mxGeometry x="434" y="497" width="100" height="40" as="geometry" />
        </mxCell>
        <mxCell id="Gz_pXDHY9g16WIGXIUQy-26" value="books" style="shape=rhombus;perimeter=rhombusPerimeter;whiteSpace=wrap;html=1;align=center;" vertex="1" parent="1">
          <mxGeometry x="310" y="429" width="90" height="40" as="geometry" />
        </mxCell>
        <mxCell id="Gz_pXDHY9g16WIGXIUQy-28" style="edgeStyle=orthogonalEdgeStyle;shape=connector;rounded=0;orthogonalLoop=1;jettySize=auto;html=1;exitX=1;exitY=0.5;exitDx=0;exitDy=0;entryX=0.61;entryY=0.01;entryDx=0;entryDy=0;entryPerimeter=0;strokeColor=default;align=center;verticalAlign=middle;fontFamily=Helvetica;fontSize=11;fontColor=default;labelBackgroundColor=default;endArrow=ERmandOne;endFill=0;" edge="1" parent="1" source="Gz_pXDHY9g16WIGXIUQy-26" target="Gz_pXDHY9g16WIGXIUQy-21">
          <mxGeometry relative="1" as="geometry" />
        </mxCell>
        <mxCell id="Gz_pXDHY9g16WIGXIUQy-32" style="edgeStyle=orthogonalEdgeStyle;shape=connector;rounded=0;orthogonalLoop=1;jettySize=auto;html=1;exitX=0.5;exitY=0;exitDx=0;exitDy=0;entryX=0.5;entryY=1;entryDx=0;entryDy=0;strokeColor=default;align=center;verticalAlign=middle;fontFamily=Helvetica;fontSize=11;fontColor=default;labelBackgroundColor=default;endArrow=none;endFill=0;startArrow=ERmandOne;startFill=0;" edge="1" parent="1" source="Gz_pXDHY9g16WIGXIUQy-29" target="Gz_pXDHY9g16WIGXIUQy-31">
          <mxGeometry relative="1" as="geometry" />
        </mxCell>
        <mxCell id="Gz_pXDHY9g16WIGXIUQy-29" value="Laboratory" style="whiteSpace=wrap;html=1;align=center;" vertex="1" parent="1">
          <mxGeometry x="212" y="713" width="100" height="40" as="geometry" />
        </mxCell>
        <mxCell id="Gz_pXDHY9g16WIGXIUQy-37" style="edgeStyle=none;shape=connector;rounded=0;orthogonalLoop=1;jettySize=auto;html=1;exitX=1;exitY=0.5;exitDx=0;exitDy=0;entryX=0;entryY=0.5;entryDx=0;entryDy=0;strokeColor=default;align=center;verticalAlign=middle;fontFamily=Helvetica;fontSize=11;fontColor=default;labelBackgroundColor=default;endArrow=none;endFill=0;startArrow=ERzeroToOne;startFill=0;" edge="1" parent="1" source="Gz_pXDHY9g16WIGXIUQy-30" target="Gz_pXDHY9g16WIGXIUQy-36">
          <mxGeometry relative="1" as="geometry" />
        </mxCell>
        <mxCell id="Gz_pXDHY9g16WIGXIUQy-30" value="Researcher" style="whiteSpace=wrap;html=1;align=center;" vertex="1" parent="1">
          <mxGeometry x="350" y="601.25" width="100" height="40" as="geometry" />
        </mxCell>
        <mxCell id="Gz_pXDHY9g16WIGXIUQy-33" style="edgeStyle=none;shape=connector;rounded=0;orthogonalLoop=1;jettySize=auto;html=1;exitX=1;exitY=0.5;exitDx=0;exitDy=0;strokeColor=default;align=center;verticalAlign=middle;fontFamily=Helvetica;fontSize=11;fontColor=default;labelBackgroundColor=default;endArrow=ERoneToMany;endFill=0;entryX=0;entryY=0.5;entryDx=0;entryDy=0;" edge="1" parent="1" source="Gz_pXDHY9g16WIGXIUQy-31" target="Gz_pXDHY9g16WIGXIUQy-30">
          <mxGeometry relative="1" as="geometry">
            <mxPoint x="354" y="621" as="targetPoint" />
          </mxGeometry>
        </mxCell>
        <mxCell id="Gz_pXDHY9g16WIGXIUQy-31" value="belongs to" style="shape=rhombus;perimeter=rhombusPerimeter;whiteSpace=wrap;html=1;align=center;fontFamily=Helvetica;fontSize=11;fontColor=default;labelBackgroundColor=default;" vertex="1" parent="1">
          <mxGeometry x="218" y="599" width="89" height="44.5" as="geometry" />
        </mxCell>
        <mxCell id="Gz_pXDHY9g16WIGXIUQy-35" value="Device" style="whiteSpace=wrap;html=1;align=center;" vertex="1" parent="1">
          <mxGeometry x="490.5" y="713" width="100" height="40" as="geometry" />
        </mxCell>
        <mxCell id="Gz_pXDHY9g16WIGXIUQy-38" style="edgeStyle=orthogonalEdgeStyle;shape=connector;rounded=0;orthogonalLoop=1;jettySize=auto;html=1;exitX=0.5;exitY=1;exitDx=0;exitDy=0;entryX=0.5;entryY=0;entryDx=0;entryDy=0;strokeColor=default;align=center;verticalAlign=middle;fontFamily=Helvetica;fontSize=11;fontColor=default;labelBackgroundColor=default;endArrow=ERzeroToMany;endFill=0;" edge="1" parent="1" source="Gz_pXDHY9g16WIGXIUQy-36" target="Gz_pXDHY9g16WIGXIUQy-35">
          <mxGeometry relative="1" as="geometry" />
        </mxCell>
        <mxCell id="Gz_pXDHY9g16WIGXIUQy-36" value="assigned" style="shape=rhombus;perimeter=rhombusPerimeter;whiteSpace=wrap;html=1;align=center;fontFamily=Helvetica;fontSize=11;fontColor=default;labelBackgroundColor=default;" vertex="1" parent="1">
          <mxGeometry x="496" y="599" width="89" height="44.5" as="geometry" />
        </mxCell>
      </root>
    </mxGraphModel>
  </diagram>
</mxfile>
